<?xml version="1.0" encoding="utf-8"?>
<!-- Generator: Adobe Illustrator 19.2.1, SVG Export Plug-In . SVG Version: 6.00 Build 0)  -->
<svg version="1.1" id="layer" xmlns="http://www.w3.org/2000/svg" xmlns:xlink="http://www.w3.org/1999/xlink" x="0px" y="0px"
	 viewBox="0 0 652 652" style="enable-background:new 0 0 652 652;" xml:space="preserve">
<style type="text/css">
	.st0{fill-rule:evenodd;clip-rule:evenodd;}
	.st1{fill-rule:evenodd;clip-rule:evenodd;fill:#F7EC1D;}
	.st2{fill-rule:evenodd;clip-rule:evenodd;fill:#FDE300;}
	.st3{fill-rule:evenodd;clip-rule:evenodd;fill:#FDE400;}
	.st4{fill-rule:evenodd;clip-rule:evenodd;fill:#FCE600;}
	.st5{fill-rule:evenodd;clip-rule:evenodd;fill:#E50712;}
	.st6{fill-rule:evenodd;clip-rule:evenodd;fill:#000001;}
	.st7{fill-rule:evenodd;clip-rule:evenodd;fill:#191319;}
	.st8{fill:#E50712;}
	.st9{fill-rule:evenodd;clip-rule:evenodd;fill:#FDEA00;}
</style>
<path class="st0" d="M351,556.8c-2,5.9-8.3,20.3-23.8,20.3c-17.5,0-23.4-19.1-23.8-19.7l-0.4-1.8c0,0,15,1.2,23.2,1.2
	c8.3,0,22.6-0.8,24.8-1.2V556.8"/>
<path class="st0" d="M397,547.4l3.7,0.4c-4.5,11.2-12,23.8-27.3,23.8c-14.6,0-21.8-8.5-25-14.2l-2.4-1.4
	C345.9,555.9,371.1,554.9,397,547.4"/>
<path class="st0" d="M258.2,547.4l-3.7,0.4c4.3,11.2,12,23.8,27.1,23.8c14.6,0,22.6-8.9,25.8-14.2l1.6-1.4
	C309.1,555.9,283.9,554.9,258.2,547.4"/>
<path class="st1" d="M339.6,558c-2.4,3.5-4.1,3.3-6.9,3.3c-1.4,0-3.5,1.2-3.5,3.3c0,1.6,1.4,3,3.7,3c5.3,0,9.2-7.1,10.4-10.2
	c0,0,3.1-0.2,3.9-0.2c0,0-5.5,16.3-19.7,16.3s-19.9-16.1-19.9-16.1s12,0.6,18.9,0.6H339.6"/>
<path class="st1" d="M394.9,550.7c-9.2,2.6-15.9,4.7-31.3,6.5c0,0,0.4,1.6,3.9,1.4c1.2,0,1.4-0.4,2-0.4c0.8-0.2,2.4,0.8,2.2,2.4
	c-0.2,1.2-1.2,2.6-4.7,2.6c-3.5,0-7.5-2.9-9.6-5.5c0,0-2,0.6-4.1,0.6c0,0,6.5,9.4,19.5,9.4C387.4,567.7,392.7,554.9,394.9,550.7"/>
<path class="st2" d="M385.4,559.8c0-2.2-0.6-4.3-1.8-6.1c-5.1,1.2-10.8,2.2-19.3,3.5c0,0.2,0,0.4-0.2,0.6c0.6,0.4,1.6,0.8,3.5,0.8
	c1.2,0,1.4-0.4,2-0.4c0.8-0.2,2.4,0.8,2.2,2.4c-0.2,1.2-1.2,2.6-4.7,2.6c-0.8,0-1.8-0.2-2.6-0.4c0.4,1.4,1.2,2.9,2.2,4.1
	c1.8,0.6,4.1,0.8,6.3,0.8c4.7,0,8.3-1.2,11.4-3.3C385,563.1,385.4,561.4,385.4,559.8"/>
<path class="st3" d="M385.2,559.8c0-2.2-0.6-4.3-1.8-6.1c-4.9,1.2-10.6,2.2-18.9,3.3c0,0.4-0.2,0.6-0.2,1c0.6,0.4,1.4,0.6,3.2,0.6
	c1.2,0,1.4-0.4,2-0.4c0.8-0.2,2.4,0.8,2.2,2.4c-0.2,1.2-1.2,2.6-4.7,2.6c-0.8,0-1.6-0.2-2.6-0.4c0.6,1.6,1.4,3.1,2.4,4.3
	c1.8,0.4,3.9,0.6,6.1,0.6c4.7,0,8.1-1.2,11.2-3C384.8,563.3,385.2,561.6,385.2,559.8"/>
<path class="st4" d="M385.2,559.8c0-2.2-0.8-4.3-2-5.9c-4.9,1-10.4,2-18.5,3.1c-0.2,0.4-0.2,0.8-0.2,1c0.4,0.4,1.4,0.6,3,0.6
	c1.2,0,1.4-0.4,2-0.4c0.8-0.2,2.4,0.8,2.2,2.4c-0.2,1.2-1.2,2.6-4.7,2.6c-0.8,0-1.6,0-2.4-0.4c0.6,1.6,1.4,3.1,2.4,4.3
	c1.8,0.4,3.9,0.6,5.9,0.6c4.5,0,7.9-1.2,10.8-2.8C384.6,563.3,385.2,561.6,385.2,559.8"/>
<path class="st1" d="M260.1,550.7c9.4,2.6,15.9,4.7,31.5,6.5c0,0-0.6,1.6-3.9,1.4c-1.4,0-1.6-0.4-2-0.4c-1-0.2-2.4,0.8-2.2,2.4
	c0,1.2,1,2.6,4.5,2.6c3.5,0,7.5-2.9,9.6-5.5c0,0,2,0.6,4.3,0.6c0,0-6.7,9.4-19.7,9.4C267.6,567.7,262.3,554.9,260.1,550.7"/>
<path class="st1" d="M326.2,474.2c49.4,0,104.3-30.3,143-74.2c4.1-4.7,11.2-13.8,28.1-13.8c16.7,0,39.1,15.5,36.4,43.1
	c-2,20.3-30.9,66.1-80.5,94.2c-49.6,28.3-95.2,34.4-126.9,34.4c-31.7,0-77.5-6.1-127.1-34.4c-49.4-28.1-78.5-73.8-80.3-94.2
	c-2.6-27.7,19.5-43.1,36.4-43.1c16.7,0,23.8,9.2,27.9,13.8C221.6,443.9,276.6,474.2,326.2,474.2"/>
<path class="st0" d="M326.2,476c-24.6,0-50.7-7.3-75.1-20.1c-25.6-13.2-49.6-32.1-69.4-54.7c-2-2.4-4.9-5.7-9-8.3
	c-4.1-2.6-9.8-4.9-17.7-4.9c-1,0-1.8,0-2.6,0.2c-7.3,0.6-15.5,4.3-21.6,10.4c-6.3,6.3-10.8,15.1-10.8,26.4c0,1.4,0.2,2.8,0.2,4.3
	c1,11,10.6,29.9,27.1,49.2c13.2,15.5,30.9,31.1,52.7,43.5c24.6,14,48.2,22.4,69.6,27.5c21.6,5.1,40.7,6.5,56.5,6.5
	c15.7,0,35-1.4,56.3-6.5c21.4-5.1,45.2-13.4,69.8-27.5c21.6-12.4,39.3-28.1,52.5-43.5c16.7-19.3,26-38.2,27.1-49.2
	c0.2-1.4,0.2-2.8,0.2-4.3c0-11.4-4.5-20.1-10.6-26.4c-6.3-6.1-14.4-9.8-21.8-10.4c-0.8-0.2-1.6-0.2-2.4-0.2
	c-8.1,0-13.6,2.2-17.9,4.9c-4.1,2.6-6.9,5.9-9,8.3c-19.7,22.6-43.7,41.5-69.2,54.7C376.6,468.7,350.8,476,326.2,476 M326.2,472.5
	c24,0,49.2-7.3,73.4-19.9c25-13,48.8-31.7,68.1-53.9c2.2-2.4,5.1-5.9,9.8-9c4.7-3,10.8-5.3,19.7-5.3h2.8c8.1,0.8,16.9,4.7,23.8,11.6
	c6.9,6.7,11.6,16.5,11.6,28.9c0,1.4,0,2.8-0.2,4.5c-1,11.6-10.8,31.3-27.9,51.5c-13.4,15.7-31.3,31.5-53.5,44.1
	c-24.8,14.2-48.8,22.8-70.6,27.9c-21.8,5.1-41.3,6.5-57.2,6.5c-16.1,0-35.6-1.4-57.4-6.5c-21.6-5.1-45.6-13.6-70.6-27.9
	c-22-12.6-40.1-28.5-53.5-44.1c-17.1-20.1-26.8-39.9-27.9-51.5c-0.2-1.6-0.2-3.1-0.2-4.5c0-12.4,4.9-22.2,11.6-28.9
	c6.9-6.9,15.9-10.8,23.8-11.6h3.1c8.8,0,15.1,2.2,19.7,5.3c4.5,3.1,7.3,6.5,9.6,9c19.5,22.2,43.1,40.9,68.4,53.9
	C276.8,465.2,302.2,472.5,326.2,472.5"/>
<path class="st5" d="M177.5,404.2l-0.6-0.6c-3.9-4.5-9.4-10.8-22.2-10.8c-7.5,0-16.1,4.1-21.8,10.4c-4.3,4.7-9.2,12.8-7.9,25.2
	c1.6,17.1,28.9,61.4,77.1,88.9c38.9,22.2,80.6,33.4,123.7,33.4c42.9,0,84.6-11.2,123.5-33.4c48.4-27.5,75.5-71.8,77.1-88.9
	c1.2-12.4-3.7-20.5-7.9-25.2c-5.5-6.3-14-10.4-21.6-10.4c-13,0-18.5,6.3-22.4,10.8l-0.6,0.6c-41.5,47.4-98.2,76.7-148.1,76.7
	C275.8,480.9,219,451.6,177.5,404.2"/>
<path class="st1" d="M485.5,348.5c0-23.8,19.3-43.1,42.9-43.1c23.8,0,43.1,19.3,43.1,43.1c0,23.8-19.3,43.1-43.1,43.1
	C504.8,391.6,485.5,372.3,485.5,348.5"/>
<path class="st0" d="M487.1,348.5c0,11.4,4.7,21.8,12.2,29.3c7.5,7.5,17.7,12,29.1,12c11.6,0,21.8-4.5,29.3-12
	c7.5-7.5,12-17.9,12-29.3c0-11.4-4.5-21.8-12-29.1c-7.5-7.5-17.7-12.2-29.3-12.2c-11.4,0-21.6,4.7-29.1,12.2
	C491.8,326.7,487.1,337.1,487.1,348.5 M483.6,348.5c0-12.4,5.1-23.6,13.2-31.7c7.9-8.1,19.3-13,31.5-13c12.4,0,23.8,4.9,31.7,13
	c8.1,8.1,13.2,19.3,13.2,31.7c0,12.4-5.1,23.6-13.2,31.7c-7.9,8.1-19.3,13.2-31.7,13.2c-12.2,0-23.6-5.1-31.5-13.2
	C488.7,372.1,483.6,360.9,483.6,348.5"/>
<path class="st1" d="M81.5,348.7c0-23.8,19.3-43.1,43.1-43.1c23.8,0,43.1,19.3,43.1,43.1c0,23.8-19.3,42.9-43.1,42.9
	C100.8,391.6,81.5,372.5,81.5,348.7"/>
<path class="st0" d="M83.3,348.7c0,11.4,4.7,21.6,12.2,29.1c7.3,7.5,17.7,12.2,29.1,12.2c11.4,0,21.8-4.7,29.3-12.2
	c7.5-7.5,12-17.7,12-29.1c0-11.4-4.5-21.8-12-29.3c-7.5-7.5-17.9-12-29.3-12c-11.4,0-21.8,4.5-29.1,12
	C88,326.9,83.3,337.3,83.3,348.7 M79.9,348.7c0-12.4,4.9-23.6,13-31.7c8.1-8.1,19.3-13.2,31.7-13.2c12.4,0,23.6,5.1,31.7,13.2
	c8.1,8.1,13.2,19.3,13.2,31.7c0,12.2-5.1,23.6-13.2,31.7c-8.1,7.9-19.3,13-31.7,13c-12.4,0-23.6-5.1-31.7-13
	C84.7,372.3,79.9,360.9,79.9,348.7"/>
<path class="st6" d="M540.2,232.7l0.4-11.6c3.5,2.6,10.2,2.8,14-1.4c1.8-1.8,2.8-4.9,2.6-7.9c-0.2-3.5-1.6-6.9-4.3-9.4
	c-14.4-14.2-27.3-28.3-27.3-28.3c-1.4-2.2-3.5-3.7-4.7-4.3c-1.8-0.8-8.1-3.7-12.8,3.7c-4.3,6.5-3.7,15.9-2.8,19.3l13.6,18.5
	C523.5,217.3,536.7,229.7,540.2,232.7"/>
<path class="st7" d="M250.3,112.7c17.1-5.7,32.5-10.4,53.7-12.4L250.3,112.7"/>
<path class="st0" d="M250.3,112.7c17.1-5.7,32.5-10.4,53.7-12.2l3.3-1.8C295.5,89.3,283.7,83,272.1,83c-7.3,0-22.2,5.1-25.4,31.1
	L250.3,112.7"/>
<path class="st0" d="M402.1,112.7c-17.1-5.7-32.8-10.4-53.7-12.2l-3.2-1.8c11.8-9.4,23.4-15.7,35-15.7c7.3,0,22.2,5.1,25.4,31.1
	L402.1,112.7"/>
<path class="st7" d="M312.2,97.9c3.5-0.2,11.4-0.4,14.6-0.4c3.2,0,12,0.4,14,0.6L312.2,97.9"/>
<path class="st0" d="M306.9,99.5c8.5-16.5,16.5-22.4,20.7-22.4c5.5,0,11.8,8.5,16.9,19.7l1,2.6l-4.3-0.4c-3.1-0.6-11.2-0.6-14.4-0.6
	c-3.3,0-10.2,0-14.4,0.2L306.9,99.5"/>
<path class="st1" d="M299.7,492.7l-11,40.5l-8.5-2.2l-14.7-35l-7.7,28.9l-9.8-2.4l11-40.7l8.8,2.4l14.4,34.6L290,490L299.7,492.7z
	 M323.3,495.1l-11-0.6l-2.2,42.1l11.2,0.6L323.3,495.1z M333.3,494.7l0.8,5.5l11.8-1.6l5.1,36.2l11-1.6l-5.1-36l11.6-1.6l-0.8-5.5
	L333.3,494.7z M425.9,466.4c12.8-7.3,24.2-7.1,31.3,5.1c5.7,10.4,4.3,23.2-10.4,31.5l-14.2,8.3l-21-36.6L425.9,466.4 M447.2,477.6
	c-3.7-6.7-9.2-11.6-19.1-5.9l-4.1,2.4l15.5,26.7l3.9-2.3C451.5,493.9,452.7,487,447.2,477.6 M399,518.3l-4.1-13l12.4-4.1l-1.8-5.3
	l-12.4,4.1l-3.5-11l12.6-4.3l-1.6-5.3l-23.4,7.7l13,39.9l25.8-8.3l-1.8-5.3L399,518.3z M239.1,471.9l-12.6,22.6
	c-3.7,6.7-7.5,11-13.8,7.3c-6.3-3.5-4.9-8.8-1-15.7l12.4-22.6l-10-5.5l-13.2,23.8c-7.3,13,1.8,21.2,8.9,25.2
	c7.7,4.1,18.9,7.3,26-5.7l13.2-24L239.1,471.9"/>
<path class="st1" d="M232,224.8v197.1l94.2,60.4l94.2-60.4V225.2c-2.8-2.6-9.2-8.5-14.2-11.6H245.6
	C241.6,216.4,233.2,223.4,232,224.8"/>
<polygon class="st0" points="233.6,224.8 233.6,420.9 326.2,480.3 418.5,420.9 418.5,225.2 422.2,225.2 422,421.9 422,422.7 
	421.2,423.3 327,483.9 326.2,484.5 325.2,483.9 231,423.3 230.2,422.7 230.2,224.8 "/>
<path class="st7" d="M419.1,226.6c-0.8-0.8-0.2-0.2-1-1c-3.2-3.1-8.5-7.9-12.8-10.4l1.8-3.1c4.5,2.8,10,7.7,13.4,10.8
	c0,0-0.4-0.4,1,0.8L419.1,226.6"/>
<rect x="245.6" y="211.8" width="160.5" height="3.7"/>
<path class="st7" d="M246.7,215c-2,1.4-4.7,3.7-7.1,5.7c-3,2.3-5.5,4.7-6.3,5.3l-2.6-2.2c0.8-1,3.7-3.5,6.7-5.9
	c2.6-2.2,5.3-4.5,7.3-5.7L246.7,215"/>
<path class="st5" d="M363.8,366.2v-7.3c0,0-2-3-6.9-3c-4.7,0-7.5,1.4-7.5,2.6C349.4,360.5,353.6,366.2,363.8,366.2 M325.8,301.5
	l7.3-12.8l5.7,12.8h9.4c-5.7,5.3-7.9,13.4-7.9,18.7v5.9c0,2.4-1.2,6.5-1.2,6.5s8.1,6.3,9.3,7.3c0.6,0.4,1.2,0.8,0.8,1.8
	c-0.6,1.8-6.3,4.3-6.9,4.9c-1.2,1-1.4,1.6-1.2,2.8c0.4,1,1.4,1.2,3.7,0.4c2-0.6,6.5-3,10.4-4.5c3.7-1.6,8.7-1.4,8.7-1.4v-7.1h-14.2
	v-22.8l-2.4-3.9l6.3-11.2l6.1,11.2l-2.4,3.9v12h7.3v-12l-2.6-3.9l6.3-11.2l6.3,11.2l-2.4,3.9v12h7.1v-12l-2.4-3.9l6.1-11.2l6.3,11.2
	l-2.4,3.9v22.8h-14v10.6c3,3.1,6.1,9.8,6.1,14c0,4.1-2.6,5.7-2.6,5.7c1,3.3,0.8,4.7,0.4,7.5c-0.4,3-4.1,7.7-4.1,7.7v54.3
	c0,3.9-8.5,3.5-8.5,0.2v-53.3c-4.9-5.3-18.1-9.4-18.1-9.4c-4.9,4.7-7.9,13.2-7.9,13.2c2.2,1.4,5.5,0,6.7-1.4c1.2-1.4,3.7-1.8,5.1-1
	c1.4,1,1.8,1.2,1.2,3.5c-0.4,2-1.4,5.7-1.4,8.1c0,2.4,3.1,2,5.1,2.2c4.3,0.2,5.1,5.1,4.7,7.7c-0.4,2.6-1.6,8.3-1.6,12
	c0,3.5,0.2,7.1,0.6,9.1c0.2,1.8,1,4.1,0.8,6.5c-0.2,3.5-2.2,3.9-4.5,1.8c-2-2.2-31.9-34-31.9-34c-2,6.5,6.3,17.5,9,20.9
	c2.6,3.3,2.4,5.9,0.2,8.1c-2.4,2.4-6.9,3.7-7.7,5.7c-0.8,2.2,2.2,8.5,8.3,16.7c6.3,7.9-7.1,13.4-15.1,14.8c-8.1,1.6-8.1-3.9-7.5-6.9
	c0.6-3,0.6-4.7,0.4-7.5c-0.2-2.6-2.6-6.3-6.1-10.8c-3.5-4.5-3.5-8.5-2-18.9c1.4-10.4,1-16.9,1-16.9s-3.5,0.2-8.5,0
	c-5.3-0.2-9.6-3.3-10-15.7c-0.2-12.6-0.6-42.3-1.4-45.4c-0.8-3.3-4.1-3.9-5.5-4.1c-1.6-0.4-1.6-2.6-0.2-3.2c3.7-1.8,8.1-6.5,6.5-9.4
	c-1.6-2.8-8.1-2.2-12.6,0c-4.5,2-8.9,6.7-10.2,7.9c-1.2,1.4-2.2,1.4-2,0c0-1.4-0.8-8.1-1.4-10.6c-0.6-2.4-2.9-6.9-3.5-8.1
	c-0.8-1.2,0-1.6,1.2-1.2c1.2,0.6,3.7,1.6,6.3,2.2c2.4,0.8,4.9-0.4,6.1-2.8c1-2.2,3.5-7.3,4.5-9.8c1.2-2.2,3.3-1.6,4.7-1.4
	c1.6,0.4,3.1,1.4,4.5,2c1.4,0.6,2.6,0.4,3.1-0.2c0.4-0.8,1-1,1.8-2.8c0.8-1.8,2-1,2-0.2c4.3,25.6,15.5,26.6,15.5,26.6
	c-1.6,4.5-5.7,11.2-6.5,12.8c-1,1.6-1.4,3.9-1.6,5.7c-0.2,1.8,0.6,18.7,1.8,24.8c1.2,6.3,4.9,3.9,6.1,2c1.2-2,4.9-9.8,4.9-9.8
	s1-2.2,1-4.1c0-1.6-3-5.7-3.9-6.9c-0.6-1-3.3-3.5-3.3-9.4s5.3-10.2,7.1-11.8c2-1.4,2-3.7,1.8-4.9c-1-4.7-5.9-14.2-8.1-17.9
	c-2.4-3.9-7.1-10.8-7.1-10.8h9.8l6.1-12.8l6.7,12.8L325.8,301.5z M324.2,340.3c3.3-5.1,4.5-10.6,4.5-10.6h-8.9
	C319.7,329.8,321.1,335.2,324.2,340.3 M314.8,314.3c0.4,2.6,2.2,3.7,3.9,2.8c1.4-0.8,1.2-3,0-4.7c-1-1.8-3.3-3.7-3.9-3.3
	C314.2,309.4,314.6,312.7,314.8,314.3 M332.7,309.2c-0.6-0.4-2.8,1.4-4.1,3.3c-1,1.6-1.2,3.9,0.2,4.7c1.4,0.8,3.5-0.2,3.9-2.8
	C332.9,312.7,333.5,309.4,332.7,309.2"/>
<rect x="239.3" y="274" class="st8" width="173.7" height="11.8"/>
<rect x="239.3" y="220.7" class="st8" width="173.7" height="47.2"/>
<polygon class="st1" points="378.9,269.3 378.9,261.2 366.3,261.2 366.3,256.1 376.6,256.1 376.6,233.3 367.1,233.3 363.8,227 
	360.6,233.3 351.2,233.3 351.2,256.1 361.6,256.1 361.6,261.2 336.8,261.2 336.8,256.1 347.1,256.1 347.1,233.3 337.6,233.3 
	334.3,227 331.3,233.3 321.7,233.3 321.7,256.1 332.1,256.1 332.1,261.2 306.9,261.2 306.9,256.1 317.2,256.1 317.2,233.3 
	307.7,233.3 304.4,227 301.2,233.3 291.8,233.3 291.8,256.1 302.2,256.1 302.2,261.2 282.2,261.4 262.3,256.7 266.4,269.3 "/>
<polygon class="st1" points="269.2,255.7 282.5,259 289.6,238.8 289.6,233.7 "/>
<path class="st1" d="M301.4,99.1c-20.7,1.8-33.4,6.3-50.2,11.8c1.4-7.1,3-11.4,5.9-15.7c-0.2,3.7,2.8,7.7,9,7.7s9.3-3.5,9.3-5.7
	c0-2-1.2-5.1-4.5-5.1c-3.2,0-4.1,2.4-3.7,3.2c0.2,1-0.6,1.2-1.4,1.4c-1,0.2-3.7-1.2-2.6-4.5c1-3.5,5.3-5.5,10.6-5.5
	C273.7,86.9,285.9,86.5,301.4,99.1"/>
<path class="st1" d="M401.2,111.1c-16.9-5.7-30.1-10-50.6-11.8c9.4-6.7,18.3-12.2,28.1-12.2c5.1,0,9.4,1.8,10.4,5.5
	c1,3.3-1.6,4.7-2.4,4.5c-1-0.4-1.6-0.6-1.4-1.4c0.2-1-0.4-3.2-3.7-3.2c-3.2,0-4.7,3-4.7,5.1c0,2,3.5,5.5,9.6,5.5
	c5.9,0,8.9-3.9,8.7-7.5C398.2,99.5,400,104,401.2,111.1"/>
<path class="st1" d="M314,95.2c-0.6,1-1,1.6-1.6,2.6c3.5-0.2,11.4-0.4,14.4-0.4c3.3,0,11.8,0.4,13.8,0.6c-3.3-7.1-9-17.1-13-17.1
	c-0.8,0-2.6-0.4-5.9,3.5c0,0-0.4,1.6,1.6,1.4c2.6-0.4,3.7,2.2,3.5,3.7c-0.4,3.3-4.3,6.3-7.9,6.3C315.2,95.8,314,95.2,314,95.2"/>
<path class="st0" d="M134.4,211.4l13.6-18.5c0.8-3.5,1.4-12.8-2.9-19.3c-4.9-7.3-11.2-4.5-13-3.7c-1,0.6-3.3,2-4.5,4.3
	c0,0-13.2,14.4-27.7,28.5c-1.8,2-4.3,5.7-4.5,9.2c0,3,1.2,6.1,2.9,8.1c4.1,4.1,11,3.9,14.4,1.2l0.2,11.6
	C116.7,229.7,129.7,217.2,134.4,211.4"/>
<path class="st1" d="M326.2,184.3c77.5,0,121.6,72.8,131.2,85.6c17.1,22.8,38,41.3,62.2,35.2c35.8-9,33.8-61.8,33.8-61.8
	c-8.5-6.3-23.2-14-49.8-51.9c-26.2-37-85.4-92.2-177.4-92.2c-92.2,0-151.3,55.1-177.6,92.2c-26.6,37.8-41.3,45.6-49.8,51.9
	c0,0-1.8,52.9,33.8,61.8c24.2,6.1,45.2-12.4,62.2-35.2C204.3,257.1,248.5,184.3,326.2,184.3"/>
<path class="st0" d="M326.2,186.1c-70.4,0-112.9,60.8-126.9,80.6c-1.2,1.8-2,3.3-3,4.3c-8.5,11.6-18.3,22.2-28.9,28.9
	c-10.8,7.1-22.6,10.2-35.2,7.1c-37-9.6-35.2-63.7-35.2-63.7v-1l0.8-0.4c1-0.8,1.8-1.4,3-2.2c8.7-5.9,22.8-15.7,46.4-49.2
	c15.3-21.8,41.7-49.4,79.3-69c27.3-14,60.6-24,99.7-24c39.1,0,72.2,10,99.5,24c37.6,19.5,64.1,47.2,79.3,69
	c23.6,33.6,37.8,43.3,46.6,49.2c1,0.8,2,1.4,2.8,2.2l0.8,0.4v1c0,0,2,54.1-35.2,63.7c-12.6,3.1-24.4,0-35.2-7.1
	c-10.6-6.7-20.1-17.3-28.9-28.9c-0.8-1-1.8-2.4-3.1-4.3C439.1,247,396.4,186.1,326.2,186.1 M326.2,182.7c72,0,115.5,61.8,129.6,82
	c1.2,1.8,2.4,3.3,3.1,4.3c8.5,11.2,17.9,21.4,28.1,28.1c10,6.3,20.7,9.4,32.3,6.5c31.7-8.1,32.5-52.5,32.5-59.4
	c-0.8-0.4-1.4-1-2.2-1.4c-9-6.3-23.4-16.3-47.4-50.3c-15.1-21.4-41.1-48.6-78.1-67.7c-26.9-14-59.4-23.6-97.8-23.6
	c-38.4,0-71.2,9.6-98,23.6c-37,19.1-63.1,46.4-77.9,67.7c-24,34-38.4,43.9-47.6,50.3c-0.6,0.4-1.4,1-2,1.4
	c-0.2,6.9,0.6,51.3,32.3,59.4c11.6,2.8,22.4-0.2,32.5-6.5c10.2-6.7,19.5-16.9,27.9-28.1c0.8-1,1.8-2.4,3.1-4.3
	C210.7,244.5,254,182.7,326.2,182.7"/>
<path class="st5" d="M326.2,177.4c74.7,0,119.2,63.5,133.8,84.4c1,1.6,2,3,2.8,4.1c19.7,26.2,37.8,37,55.1,32.5
	c25-6.3,28.1-40.7,28.5-51.1V247l-0.4-0.2c-8.7-6.1-23.4-16.3-48.2-51.5c-14.6-20.9-70.8-89.1-171.7-89.1
	c-101.1,0-157,68.3-171.9,89.1c-24.6,34.8-39.9,45.6-48.2,51.3l-0.2,0.2v0.4c0.2,10.4,3.5,44.9,28.3,51.3
	c17.3,4.5,35.4-6.3,55.1-32.5c0.8-1,1.8-2.4,3.1-4.1C206.8,240.9,251.3,177.4,326.2,177.4"/>
<path class="st1" d="M197.4,233.7l-6.9,8.5l-23-19.3l14.6,29.3l-3.2,3.7l-30.5-9.8l22.8,19.1l-4.9,5.7L134,243.9l6.7-7.9l31.5,10.2
	L157.6,216l7.7-9.4L197.4,233.7z M230.4,198.7l-8.1,8.5l-11-4.7l-9.8,10.6l5.5,10.6l-4.9,5.3L181.8,189l7.3-7.7L230.4,198.7z
	 M191.3,193.7l7.3,14.4l7.3-7.7L191.3,193.7z M238.3,143.2l15.7,25.2l-35.2-13.2l-7.7,5.1l22.2,35.6l8.5-5.3l-15.9-25.4l35.6,13
	l7.5-4.7l-22.2-35.6L238.3,143.2z M371.3,163.8l4.5-12.8l12.4,4.3l1.8-5.3l-12.4-4.3l3.7-11l12.8,4.5l1.8-5.3l-23.2-8.1l-13.8,39.9
	l25.6,8.7l1.8-5.3L371.3,163.8z M443.4,161.1l-3.9,4.3l9,7.9l-24.4,27l8.1,7.3l24.4-27.1l8.7,7.9l3.7-4.3L443.4,161.1z M455.4,224.4
	l10.4-8.8l8.5,10l4.3-3.7l-8.3-10l8.7-7.5l8.8,10.4l4.3-3.5l-15.9-18.9l-32.1,27l17.3,20.7l4.5-3.7L455.4,224.4z M498.5,255.7
	l-6.3,19.1l-9.3-7.5l7.7-17.7l-3.7-4.1l-12.4,11.2l-7.3-8.1l31.3-28.3l11.4,12.8c6.3,6.9,8.1,14.2,2.2,19.5
	C505,259.2,498.7,255.9,498.5,255.7 M501.7,232.3l-10.8,9.6l2,2.2c3.2,3.5,7.3,4.1,10.8,1c3.3-2.8,3.3-6.7,0.4-10L501.7,232.3z
	 M340.2,122.3l-0.2,17.3l-16.5-0.4l0.2-17.1l-11-0.2l-0.8,41.9l11.2,0.2l0.2-19.1L340,145l-0.4,19.3l11,0.2l0.8-42.1L340.2,122.3z
	 M400.2,184.7c7.7,4.9,16.5,4.1,20.3-2.6c3-4.7,3-8.3-0.4-15.3c-1-2-2.2-3.5-3.1-5.3c-1.4-2.8-2.8-5.1-1.6-7.3
	c1.6-2.4,4.9-2.6,7.9-0.8c3.2,2,4.7,5.1,5.3,7.3l5.1-2c-1.6-4.3-3.9-7.9-9.1-11.2c-9-5.3-16.3-3.9-19.3,1.2c-3,5.1-2.2,9.3,0,13.6
	c0.2,0,1.6,2.6,2.4,4.3c2,3.5,4.3,7.5,2.6,10.4c-2,3.3-5.5,4.1-8.7,2c-4.5-2.8-5.5-5.9-6.3-9.2l-5.5,2.4
	C391.1,176.6,393.9,181.1,400.2,184.7 M285.5,124.5c-13.8,2.8-22.8,13-19.7,26.6c1.6,7.5,8.3,21.2,29.1,16.7c5.9-1,8.9-3.5,12-6.3
	L303,157c-1.2,1.6-3.5,4.1-8.3,5.1c-10,2-16.1-6.1-17.5-13.2c-2.2-10.4,3.9-17.7,10.8-19.1c4.9-1,7.7,0.2,9.8,1l1.2-5.5
	C295.7,124.1,291.6,123.1,285.5,124.5"/>
<path class="st1" d="M508.4,194.5c-0.4-2.4-1.4-13.2,2.6-18.7c3.9-5.3,7.1-3.5,8.9-2.6c1,0.2,3.5,1.8,3.9,5.1
	c0.2,1.6-0.2,4.1-1.6,5.9c-2.4,3.5-8.3,5.7-8.3,5.7s7.5,14.6,23.2,29.1v9.8C515.6,207.9,508.4,194.5,508.4,194.5 M519.4,191.4
	c2,3.7,7.5,12.6,21.2,25.4c2.2,2.2,7.9,3.9,11,0.4c1.2-1.4,2-3.5,1.8-5.7c0-2.6-1.6-5.7-3.3-6.9c-2.6-2.4-14.4-14.2-22.8-23.4
	c-0.2,1.6-1.6,4.5-1.6,4.5C524.5,187.4,523.3,189.6,519.4,191.4 M116.1,228c21.2-20.7,28.5-33.8,28.5-33.8c0.6-2.4,1.6-13-2.4-18.5
	c-3.7-5.3-7.1-3.5-9-2.6c-0.8,0.2-3.3,1.8-3.9,5.1c-0.2,1.6,0.4,4.1,1.6,5.9c2.6,3.5,8.3,5.7,8.3,5.7s-7.3,14.4-23.2,29.1V228
	 M133.6,191.4c-3.7-1.8-5.1-4.1-6.3-5.7c0,0-1.4-2.8-1.6-4.5c-8.3,9.2-20.1,21-22.8,23.4c-1.6,1.2-3.3,4.3-3.3,6.9
	c-0.2,2.2,0.6,4.3,1.8,5.7c3.3,3.5,8.8,1.8,11-0.4C126,204,131.5,195.1,133.6,191.4"/>
<path class="st5" d="M89.6,348.9c0-19.3,15.7-35,35.2-35c19.3,0,35,15.7,35,35c0,19.5-15.7,35.2-35,35.2
	C105.3,384.1,89.6,368.4,89.6,348.9"/>
<path class="st1" d="M133.6,379.4c-1.8,0.6-2.6-0.6-3.5-1.6c-3.3-3.7-4.1-13.8-4.1-15.1c0-1.4,0.4-2.8,1.4-2.8
	c7.9-0.2,13.4-2.4,18.7-6.7c5.1-4.3,7.3-9.2,7.7-10c0.6-1,1.6-0.8,1.8,0.6c0.2,1,0.6,3.1,0.6,5.1
	C156.3,363.3,146.6,375.1,133.6,379.4 M125.2,380.6h-0.6c-5.9,0-12.2-2-16.1-4.3c-3.9-2.2-5.3-12.2-5.3-17.3
	c0-16.5,6.7-26.4,7.7-28.5c1.2-1.8,3.7-2,5.5-1.6c1.6,0.4,2.4,0.8,4.5,1.4c1.2,0.4,3.5,0.8,5.1,1.2c1.6,0.4,3.5,0.8,2.4,3.9
	c-1.2,3.3-4.7,10.8-5.1,19.7c-0.4,8.1,0.6,16.3,2.4,21.1C127,379.6,127,380.8,125.2,380.6 M101.2,342.8c-1.6-0.8-3.5-4.7-4.1-5.9
	c-0.4-0.8-0.4-3.2,0.2-4.3c2.6-4.7,6.3-8.8,11-11c0.6-0.2,1.4-0.2,1.4,1c0,0.8,0.4,2,0.4,2.8c0,0.6,0.4,2.2-0.6,3.5
	c-1,1.2-5.3,8.5-6.3,12.8C103,342.8,102.8,343.8,101.2,342.8 M100.4,369.4c-4.5-4.3-7.5-12.2-7.5-20.5c0-3,0.4-6.1,1.2-9.2
	c0,0,0.8-1.2,1.6-0.2c0.4,0.8,1.2,1.6,1.8,2.9c0.6,1,4.1,3.7,3.7,5.7c-1.2,7.7,0,18.1,0.2,19.7C101.8,369.6,101.2,370.4,100.4,369.4
	 M114.2,319c3.3-1,6.7-1.8,10.4-1.8c5.5,0,10.6,1,15.1,3.9c1.2,0.8,1.4,1.6,1.4,2.8c0,4.3-6.5,5.7-10.8,5.7c-4.3,0-9.6-1.8-13.4-3.1
	c-3.7-1-4.5-3.3-4.5-4.3C112.4,321.2,113,319.4,114.2,319 M143.5,323.6c0.6,0.4,2.2,1.6,2.2,1.6c3,2.6,5.7,5.9,7.3,9.8
	c2,4.7-4.3,12-6.1,13.6c-8.1,7.5-13.2,7.5-16.1,7.9c-2.8,0.4-4.7-1.4-4.7-3.7c0.2-6.3,4.7-17.3,6.1-19.3c0.8-1.4,2.2-2.2,2.2-2.2
	c3-0.8,5.9-2,7.3-3.9C143.5,325.9,143.5,323.6,143.5,323.6"/>
<path class="st5" d="M564,348.9c0-19.3-15.7-35-35.2-35c-19.3,0-35,15.7-35,35c0,19.5,15.7,35.2,35,35.2
	C548.3,384.1,564,368.4,564,348.9"/>
<path class="st1" d="M497.3,348.9c0-2,0.4-4.1,0.6-5.1c0.2-1.4,1.2-1.6,1.8-0.6c0.4,0.8,2.6,5.7,7.7,10c5.3,4.3,10.8,6.5,18.7,6.7
	c1,0,1.4,1.4,1.4,2.8c0,1.2-0.8,11.4-4.1,15.1c-0.8,1-1.6,2.2-3.5,1.6C507,375.1,497.3,363.3,497.3,348.9 M527.8,376.3
	c1.8-4.9,2.8-13,2.4-21.2c-0.4-9-4.1-16.5-5.1-19.7c-1-3.1,0.8-3.5,2.4-3.9c1.6-0.4,3.9-0.8,5.1-1.2c2-0.6,2.9-1,4.5-1.4
	c1.8-0.4,4.3-0.2,5.5,1.6c1,2,7.7,12,7.7,28.5c0,5.1-1.4,15.1-5.3,17.3c-3.9,2.2-10.2,4.3-16.1,4.3h-0.6
	C526.6,380.8,526.6,379.6,527.8,376.3 M550.4,341.8c-1-4.3-5.3-11.6-6.3-12.8c-1-1.2-0.6-2.8-0.6-3.5c0-0.8,0.4-2,0.4-2.8
	c0-1.2,0.8-1.2,1.4-1c4.7,2.2,8.3,6.3,11,11c0.6,1,0.6,3.5,0.2,4.3c-0.6,1.2-2.4,5.1-4.1,5.9C550.8,343.8,550.6,342.8,550.4,341.8
	 M552.2,367.8c0.2-1.6,1.4-12,0.2-19.7c-0.4-2,3-4.7,3.7-5.7c0.6-1.2,1.4-2,1.8-2.8c0.8-1,1.6,0.2,1.6,0.2c0.8,3,1.2,6.1,1.2,9.1
	c0,8.3-3,16.3-7.5,20.6C552.4,370.4,551.8,369.6,552.2,367.8 M541.2,322.2c0,1-0.8,3.3-4.5,4.3c-3.9,1.2-9.2,3.1-13.4,3.1
	c-4.3,0-10.8-1.4-10.8-5.7c0-1.2,0.2-2,1.4-2.9c4.5-2.8,9.6-3.9,15.1-3.9c3.7,0,7.1,0.8,10.4,1.8
	C540.6,319.4,541.2,321.2,541.2,322.2 M511.7,327.5c1.4,1.8,4.3,3,7.3,3.9c0,0,1.4,0.8,2.2,2.2c1.4,2,5.9,13,6.1,19.3
	c0,2.2-1.8,4.1-4.7,3.7c-2.8-0.4-7.9-0.4-16.1-7.9c-1.8-1.6-8.1-9-6.1-13.6c1.6-3.9,4.3-7.1,7.3-9.8c0,0,1.6-1.2,2.2-1.6
	C510.1,323.6,510.1,325.9,511.7,327.5"/>
<path class="st9" d="M494.4,348.7c0,9.8,3.9,18.5,10.2,24.8c6.3,6.3,15,10.2,24.6,10.2c9.6,0,18.3-3.9,24.6-10.2
	c6.3-6.3,10.2-15.1,10.2-24.8c0-9.6-3.9-18.3-10.2-24.6c-6.3-6.3-15-10.2-24.6-10.2c-9.6,0-18.3,3.9-24.6,10.2
	C498.3,330.4,494.4,339.1,494.4,348.7 M494,348.7c0-9.6,3.9-18.5,10.4-24.8c6.3-6.3,15-10.4,24.8-10.4c9.8,0,18.5,4.1,24.8,10.4
	c6.5,6.3,10.4,15.3,10.4,24.8c0,9.8-3.9,18.7-10.4,25c-6.3,6.3-15.1,10.4-24.8,10.4c-9.8,0-18.5-4.1-24.8-10.4
	C497.9,367.4,494,358.4,494,348.7"/>
</svg>
